# xmcd
#
# Track frame offsets:
#	150
#	9113
#	20401
#	32679
#	43524
#	54249
#	64944
#	74739
#	85239
#	95672
#
# Disc length: 1412 seconds
#
# Revision: 1
# Processed by: cddbd v1.5.2PL0 Copyright (c) Steve Scherf et al.
# Submitted via: audiograbber 1.83.01
#
DISCID=7b05820a
DTITLE=Floyd Cramer - Dallas
DYEAR=1980
DGENRE=Instrumental
TTITLE0=Dallas
TTITLE1=The Incredible Hulk
TTITLE2=Taxi
TTITLE3=All In The Family
TTITLE4=The Waltons
TTITLE5=Little House On The Prairie
TTITLE6=The Young And The Restless
TTITLE7=M*A*S*H
TTITLE8=Lavern and Shirley
TTITLE9=Knots Landing
EXTD=
EXTT0=
EXTT1=
EXTT2=
EXTT3=
EXTT4=
EXTT5=
EXTT6=
EXTT7=
EXTT8=
EXTT9=
PLAYORDER=
